HIERARCHY
ROOT Hips
{
 OFFSET 0.000000 0.000000 0.000000
 CHANNELS 6 Xposition Yposition Zposition Yrotation Xrotation Zrotation
 JOINT Chest
 {
  OFFSET 0.000000 9.585900 0.002600
  CHANNELS 3 Yrotation Xrotation Zrotation
  JOINT Chest2
  {
   OFFSET 0.000000 9.601200 -0.005300
   CHANNELS 3 Yrotation Xrotation Zrotation
   JOINT Chest3
   {
    OFFSET 0.000000 9.561800 0.000000
    CHANNELS 3 Yrotation Xrotation Zrotation
    JOINT Chest4
    {
     OFFSET 0.000000 9.552100 0.000000
     CHANNELS 3 Yrotation Xrotation Zrotation
     JOINT Neck
     {
      OFFSET 0.000000 14.453000 0.000000
      CHANNELS 3 Yrotation Xrotation Zrotation
      JOINT Head
      {
       OFFSET 0.000000 8.936500 -0.011300
       CHANNELS 3 Yrotation Xrotation Zrotation
       End Site
       {
        OFFSET 0.000000 17.073600 -0.006000
       }
      }
     }
     JOINT RightCollar
     {
      OFFSET -2.921100 9.558500 0.000000
      CHANNELS 3 Yrotation Xrotation Zrotation
      JOINT RightShoulder
      {
       OFFSET -13.519700 0.000000 0.000000
       CHANNELS 3 Yrotation Xrotation Zrotation
       JOINT RightElbow
       {
        OFFSET 0.000000 -29.696600 0.000000
        CHANNELS 3 Yrotation Xrotation Zrotation
        JOINT RightWrist
        {
         OFFSET 0.000000 -24.004700 0.000000
         CHANNELS 3 Yrotation Xrotation Zrotation
         End Site
         {
          OFFSET 0.000000 -17.728500 0.000000
         }
        }
       }
      }
     }
     JOINT LeftCollar
     {
      OFFSET 2.921100 9.558500 0.000000
      CHANNELS 3 Yrotation Xrotation Zrotation
      JOINT LeftShoulder
      {
       OFFSET 13.519700 0.000000 0.000000
       CHANNELS 3 Yrotation Xrotation Zrotation
       JOINT LeftElbow
       {
        OFFSET 0.000000 -29.696600 0.000000
        CHANNELS 3 Yrotation Xrotation Zrotation
        JOINT LeftWrist
        {
         OFFSET 0.000000 -24.004700 0.000000
         CHANNELS 3 Yrotation Xrotation Zrotation
         End Site
         {
          OFFSET 0.000000 -17.728500 0.000000
         }
        }
       }
      }
     }
    }
   }
  }
 }
 JOINT RightHip
 {
  OFFSET -7.771700 -0.012900 -0.001300
  CHANNELS 3 Yrotation Xrotation Zrotation
  JOINT RightKnee
  {
   OFFSET 0.000000 -40.869800 0.001200
   CHANNELS 3 Yrotation Xrotation Zrotation
   JOINT RightAnkle
   {
    OFFSET 0.000000 -39.717900 0.002100
    CHANNELS 3 Yrotation Xrotation Zrotation
    JOINT RightToe
    {
     OFFSET 0.000000 -4.965400 11.033500
     CHANNELS 3 Yrotation Xrotation Zrotation
     End Site
     {
      OFFSET 0.000000 -1.423100 5.872300
     }
    }
   }
  }
 }
 JOINT LeftHip
 {
  OFFSET 7.771700 -0.012900 -0.001300
  CHANNELS 3 Yrotation Xrotation Zrotation
  JOINT LeftKnee
  {
   OFFSET 0.000000 -40.869800 0.001200
   CHANNELS 3 Yrotation Xrotation Zrotation
   JOINT LeftAnkle
   {
    OFFSET 0.000000 -39.717900 0.002100
    CHANNELS 3 Yrotation Xrotation Zrotation
    JOINT LeftToe
    {
     OFFSET 0.000000 -4.965400 11.033500
     CHANNELS 3 Yrotation Xrotation Zrotation
     End Site
     {
      OFFSET 0.000000 -1.423100 5.872300
     }
    }
   }
  }
 }
}
MOTION
Frames: 14
Frame Time: 0.008333
0.000000 85.388000 0.000000 0.000000 -5.767877 0.000000 0.000000 11.653817 0.000000 0.000000 -5.885947 0.000000 0.000000 -0.000000 0.000000 0.000000 -0.000000 0.000000 0.000000 12.528835 0.000000 0.000000 0.711642 0.000000 0.000000 -0.000000 0.000000 0.000000 0.000000 -90.000000 0.000000 -2.309062 0.000000 0.000000 2.309062 0.000000 0.000000 -0.000000 0.000000 0.000000 -0.000000 90.000000 0.000000 -2.309062 0.000000 0.000000 2.309062 0.000000 0.000000 8.520406 0.000000 0.000000 1.905762 0.000000 -0.000000 -4.658285 0.000000 0.000000 -0.000000 0.000000 0.000000 8.520406 0.000000 0.000000 1.905762 0.000000 -0.000000 -4.658285 0.000000 0.000000 -0.000000 0.000000
-58.695161 50.485391 -0.562588 164.489543 -10.463616 0.273561 3.169281 8.096190 0.965144 0.166006 0.387426 0.008919 0.278569 0.804709 -0.020154 2.876054 7.760800 0.096459 0.988854 18.857062 0.420295 1.643604 -0.856426 0.443669 2.901274 5.637914 0.030752 2.229678 -31.189465 -17.228184 -115.116401 -78.034454 135.556057 0.039480 2.123844 -20.359033 -5.937233 4.578009 0.139634 22.478931 -11.918568 5.853235 82.498235 -67.532393 -112.433568 3.079166 3.197516 6.013605 -6.751032 -70.039871 -2.274903 -118.424610 80.670401 -115.675845 0.740399 -15.869055 -2.183061 -0.324801 0.932984 -0.080715 -8.645826 -73.728448 23.416294 112.707128 79.011015 109.679514 -15.859818 -21.832791 0.242814 -0.407937 -1.250405 -0.158019
-58.699067 50.486591 -0.577700 164.534298 -10.435055 0.274750 3.120356 8.152143 0.930629 0.159797 0.436365 -0.005172 0.281011 0.741303 -0.003373 2.846899 7.769642 0.086495 1.000749 18.706880 0.422035 1.679699 -1.093322 0.448806 2.795291 5.647532 -0.027910 1.735860 -30.879821 -17.221701 -111.234615 -78.057145 131.833596 0.010771 2.661988 -20.252649 -5.845081 4.450709 0.180283 22.731437 -11.510739 6.134327 82.273547 -67.567953 -112.305233 2.973394 3.391436 6.025174 -6.679980 -70.066189 -2.365754 -118.554164 80.648931 -115.804319 0.734497 -15.890151 -2.160504 -0.329658 0.929220 -0.085205 -8.641476 -73.758429 23.366587 112.735627 79.008649 109.716931 -15.891781 -21.828197 0.248429 -0.420111 -1.248940 -0.160993
-58.698004 50.487651 -0.591503 164.563568 -10.390278 0.244352 3.093643 8.179742 0.933786 0.159476 0.398515 0.004327 0.274773 0.799536 -0.018905 2.825612 7.764079 0.080215 1.009694 18.561784 0.429376 1.696146 -1.362205 0.461924 2.694023 5.666934 -0.086837 1.218294 -30.552998 -17.212906 -107.669544 -77.961709 128.469584 -0.032552 3.133801 -20.161337 -5.746938 4.333958 0.242848 22.930954 -11.077419 6.372685 82.289116 -67.649080 -112.390682 2.886433 3.510585 6.076317 -6.618296 -70.100287 -2.410715 -118.638803 80.623086 -115.854638 0.704652 -15.902103 -2.148561 -0.309310 0.920712 -0.079092 -8.753056 -73.799607 23.450404 112.774253 78.996617 109.758624 -15.866879 -21.834679 0.246466 -0.410317 -1.238496 -0.164349
-58.696145 50.489593 -0.610185 164.574710 -10.364310 0.219185 3.088641 8.231642 0.936220 0.157745 0.418216 -0.001176 0.274280 0.783713 -0.014694 2.806808 7.780304 0.071552 1.031080 18.447033 0.447453 1.678194 -1.688092 0.483292 2.597324 5.682849 -0.142939 0.690838 -30.174456 -17.197609 -104.760158 -77.784183 125.777189 -0.088802 3.496925 -20.112690 -5.655791 4.233930 0.321841 23.084687 -10.630799 6.564199 82.523416 -67.764162 -112.672337 2.818286 3.569102 6.146052 -6.594453 -70.116690 -2.411066 -118.743008 80.606569 -115.946032 0.677030 -15.911105 -2.135530 -0.287804 0.910079 -0.089851 -8.839638 -73.820519 23.524613 112.844412 78.976189 109.828547 -15.828144 -21.838927 0.242840 -0.393186 -1.238615 -0.166114
-58.697213 50.490675 -0.624175 164.606127 -10.300597 0.200782 3.066881 8.251447 0.927678 0.157284 0.440448 -0.006475 0.273613 0.766225 -0.010433 2.794168 7.798070 0.065158 1.019108 18.286123 0.458004 1.669617 -1.981694 0.516810 2.503505 5.690483 -0.194795 0.150756 -29.725345 -17.167303 -102.655120 -77.563914 123.895929 -0.157757 3.716864 -20.106556 -5.580396 4.159219 0.407860 23.197943 -10.184465 6.707780 82.965734 -67.899110 -113.138898 2.762973 3.592296 6.207830 -6.642685 -70.175581 -2.376349 -118.865351 80.599399 -116.077337 0.678491 -15.919063 -2.131057 -0.302211 0.898013 -0.084374 -8.940479 -73.879888 23.591538 112.864681 78.965142 109.851512 -15.820787 -21.834658 0.237983 -0.387966 -1.240429 -0.164416
-58.699366 50.491781 -0.637233 164.636363 -10.228382 0.189949 3.046014 8.244477 0.917537 0.162648 0.465168 -0.010003 0.265137 0.721601 -0.003623 2.794508 7.863709 0.055746 0.987595 18.087047 0.472318 1.658475 -2.234826 0.551765 2.409149 5.694408 -0.247658 -0.412717 -29.199789 -17.111595 -101.393056 -77.321026 122.867247 -0.228503 3.786452 -20.129976 -5.442391 4.172623 0.552017 23.214543 -9.781739 6.725930 83.563880 -68.040465 -113.745197 2.711248 3.596523 6.235985 -6.675764 -70.244254 -2.356711 -118.968359 80.589025 -116.189713 0.670764 -15.929942 -2.108148 -0.307903 0.888895 -0.088103 -9.023812 -73.948400 23.638138 112.872381 78.954044 109.864136 -15.824814 -21.824922 0.234150 -0.389160 -1.255084 -0.163590
-58.701753 50.493151 -0.649723 164.666096 -10.154124 0.183056 3.019934 8.192445 0.911761 0.180868 0.536199 -0.018728 0.249657 0.675497 0.000730 2.808255 7.929105 0.051495 0.968725 17.962163 0.484003 1.619205 -2.546966 0.595849 2.315136 5.706197 -0.306814 -1.008538 -28.604944 -17.024490 -100.962203 -77.060275 122.677983 -0.285549 3.726876 -20.174240 -5.355398 4.186929 0.658329 23.242143 -9.382975 6.726340 84.225900 -68.176905 -114.418560 2.656093 3.593498 6.216097 -6.665015 -70.313326 -2.372695 -119.041329 80.572588 -116.260752 0.653852 -15.945385 -2.098221 -0.299711 0.886732 -0.084924 -9.097386 -74.019432 23.673788 112.868777 78.943208 109.867400 -15.845516 -21.808485 0.233496 -0.338181 -1.261075 -0.158708
-58.704331 50.494717 -0.660495 164.695501 -10.072949 0.178228 3.037608 8.271725 0.894456 0.165091 0.469250 -0.009018 0.244070 0.677758 -0.003217 2.820669 7.942409 0.056235 0.934141 17.812127 0.499333 1.584254 -2.809186 0.629434 2.219855 5.736617 -0.370652 -1.634086 -27.956674 -16.906802 -101.281482 -76.790253 123.238240 -0.321811 3.564165 -20.227090 -5.308085 4.199127 0.735123 23.283270 -8.987335 6.699632 84.878949 -68.300694 -115.102639 2.596841 3.595893 6.141494 -6.662857 -70.391974 -2.376740 -119.092460 80.550829 -116.314748 0.633016 -15.955815 -2.090980 -0.284981 0.881186 -0.077268 -9.170928 -74.097097 23.710218 112.853354 78.933874 109.856640 -15.871822 -21.787237 0.236218 -0.361565 -1.268257 -0.164222
-58.703482 50.496459 -0.667877 164.720994 -9.981775 0.152370 3.056999 8.293432 0.908002 0.140927 0.401629 -0.003945 0.258253 0.729032 -0.007881 2.838727 7.948490 0.061246 0.897470 17.674573 0.513249 1.544359 -3.057589 0.656448 2.124605 5.787430 -0.432081 -2.277675 -27.272411 -16.759526 -102.224368 -76.532788 124.411925 -0.331991 3.320773 -20.278781 -5.273970 4.229048 0.796057 23.325702 -8.610499 6.627350 85.486468 -68.405986 -115.767915 2.532396 3.610859 6.003393 -6.671167 -70.470062 -2.352953 -119.069524 80.525809 -116.273656 0.604043 -15.971952 -2.083854 -0.258531 0.885013 -0.080239 -9.321758 -74.179110 23.827975 112.815581 78.927930 109.823855 -15.868880 -21.779544 0.231413 -0.441693 -1.257960 -0.178663
-58.704737 50.498337 -0.672649 164.734208 -9.876737 0.139516 3.084494 8.275877 0.914614 0.119607 0.359262 -0.003456 0.308636 0.845215 -0.012439 2.798679 7.836535 0.063562 0.925541 17.564058 0.532335 1.472117 -3.264231 0.680071 2.064276 5.898008 -0.483779 -2.927696 -26.564587 -16.574798 -103.666726 -76.313896 126.065785 -0.310426 3.023526 -20.323921 -5.217237 4.320663 0.834555 23.367986 -8.250495 6.516529 86.041531 -68.489748 -116.404226 2.461881 3.642131 5.806144 -6.734178 -70.570379 -2.293979 -119.082810 80.520674 -116.287347 0.604120 -15.971014 -2.085513 -0.259257 0.877831 -0.078271 -9.429539 -74.275210 23.909229 112.751826 78.919983 109.766095 -15.855340 -21.768054 0.220521 -0.402588 -1.237545 -0.176468
-58.704386 50.501333 -0.679684 164.764611 -9.792407 0.120082 3.088182 8.255421 0.928083 0.128668 0.384036 -0.007208 0.325070 0.865955 -0.008141 2.820857 7.838481 0.071592 0.864736 17.435947 0.533112 1.449886 -3.506712 0.695774 1.960927 5.941847 -0.528810 -3.575741 -25.841358 -16.341149 -105.473138 -76.145047 128.056293 -0.259792 2.703885 -20.348107 -5.205306 4.350954 0.859349 23.404229 -7.902819 6.377826 86.541619 -68.557131 -117.000909 2.387952 3.688459 5.566767 -6.772687 -70.644312 -2.259695 -119.092810 80.507805 -116.301082 0.608279 -15.984012 -2.064700 -0.273113 0.877657 -0.081564 -9.557242 -74.353161 23.999796 112.701486 78.911937 109.721121 -15.854242 -21.743666 0.211444 -0.388856 -1.249934 -0.173030
-58.706846 50.505306 -0.689711 164.807094 -9.725825 0.120554 3.090855 8.274101 0.925749 0.127712 0.384565 -0.008694 0.328863 0.865049 -0.005765 2.855132 7.855714 0.081414 0.840564 17.288701 0.538318 1.403932 -3.716164 0.709214 1.854982 5.987180 -0.565956 -4.212384 -25.115017 -16.054086 -107.469128 -76.022652 130.207290 -0.186517 2.383213 -20.339652 -5.189856 4.385471 0.862309 23.436216 -7.566274 6.221422 86.981773 -68.615377 -117.546950 2.314446 3.742610 5.302416 -6.772929 -70.701990 -2.278647 -119.114688 80.487913 -116.345198 0.625001 -16.009636 -2.032188 -0.299949 0.884206 -0.091482 -9.610282 -74.417940 24.002539 112.661873 78.904509 109.684698 -15.877376 -21.700425 0.214979 -0.378505 -1.252908 -0.171758
-58.710607 50.508911 -0.694860 164.829477 -9.632960 0.124054 3.125060 8.286690 0.925421 0.120642 0.364576 -0.009266 0.326349 0.861836 -0.005241 2.840109 7.812185 0.080914 0.873500 17.202150 0.546136 1.371346 -3.916085 0.719054 1.798872 6.090378 -0.589827 -4.833738 -24.401351 -15.715303 -109.498119 -75.936757 132.362571 -0.100383 2.066346 -20.304211 -5.125035 4.476572 0.847013 23.476222 -7.242949 6.051413 87.370438 -68.668254 -118.047789 2.243324 3.799608 5.034929 -6.767078 -70.785333 -2.285379 -119.062598 80.471199 -116.294626 0.605346 -16.030081 -2.022686 -0.276676 0.896281 -0.088335 -9.653616 -74.505115 24.010449 112.580300 78.893948 109.611130 -15.917603 -21.671557 0.224062 -0.409623 -1.257057 -0.182645
